<?xml version="1.0" encoding="UTF-8"?>
<svg xmlns="http://www.w3.org/2000/svg" xmlns:xlink="http://www.w3.org/1999/xlink" width="26pt" height="26pt" viewBox="0 0 26 26" version="1.1">
<g id="surface18951506">
<path style=" stroke:none;fill-rule:nonzero;fill:rgb(100%,100%,100%);fill-opacity:1;" d="M 4.679688 2.078125 C 3.25 2.078125 2.078125 3.25 2.078125 4.679688 L 2.078125 21.320312 C 2.078125 22.75 3.25 23.921875 4.679688 23.921875 L 13.433594 23.921875 C 13.488281 23.929688 13.546875 23.929688 13.601562 23.921875 L 16.550781 23.921875 C 16.609375 23.929688 16.667969 23.929688 16.722656 23.921875 L 21.320312 23.921875 C 22.75 23.921875 23.921875 22.75 23.921875 21.320312 L 23.921875 4.679688 C 23.921875 3.25 22.75 2.078125 21.320312 2.078125 Z M 4.679688 3.121094 L 21.320312 3.121094 C 22.1875 3.121094 22.878906 3.8125 22.878906 4.679688 L 22.878906 21.320312 C 22.878906 22.1875 22.1875 22.878906 21.320312 22.878906 L 17.160156 22.878906 L 17.160156 15.601562 L 19.148438 15.601562 L 19.875 11.960938 L 17.160156 11.960938 L 17.160156 10.921875 C 17.160156 10.628906 17.1875 10.609375 17.285156 10.542969 C 17.382812 10.480469 17.683594 10.398438 18.199219 10.398438 L 19.761719 10.398438 L 19.761719 7.472656 L 19.464844 7.332031 C 19.464844 7.332031 18.269531 6.761719 16.640625 6.761719 C 15.46875 6.761719 14.507812 7.226562 13.894531 7.996094 C 13.277344 8.765625 13 9.792969 13 10.921875 L 13 11.960938 L 11.441406 11.960938 L 11.441406 15.601562 L 13 15.601562 L 13 22.878906 L 4.679688 22.878906 C 3.8125 22.878906 3.121094 22.1875 3.121094 21.320312 L 3.121094 4.679688 C 3.121094 3.8125 3.8125 3.121094 4.679688 3.121094 Z M 16.640625 7.800781 C 17.722656 7.800781 18.402344 8.039062 18.71875 8.164062 L 18.71875 9.359375 L 18.199219 9.359375 C 17.601562 9.359375 17.121094 9.410156 16.71875 9.671875 C 16.3125 9.933594 16.121094 10.433594 16.121094 10.921875 L 16.121094 13 L 18.605469 13 L 18.292969 14.558594 L 16.121094 14.558594 L 16.121094 22.878906 L 14.039062 22.878906 L 14.039062 14.558594 L 12.480469 14.558594 L 12.480469 13 L 14.039062 13 L 14.039062 10.921875 C 14.039062 9.964844 14.28125 9.175781 14.707031 8.644531 C 15.132812 8.113281 15.730469 7.800781 16.640625 7.800781 Z M 16.640625 7.800781 "/>
</g>
</svg>
